<svg xmlns="http://www.w3.org/2000/svg" viewBox="0 0 624.6 137" preserveAspectRatio="none slice"><path fill="#ccccd1" d="M125.4 10.9c-.4-.4-1.1-.4-1.5 0l-5.8 5.8c-.3.3-.4.7-.2 1.1.2.3.6.6 1 .6h3.5c.6 0 1-.5 1-1s-.4-1-1-1h-1l4-4c.4-.4.4-1.1 0-1.5z"/><path fill="#ccccd1" d="M115.7 13.4c.5 0 1-.4 1-1 0-2.3 1.9-4.2 4.2-4.2.4 0 .9.1 1.3.2.2.1.5.1.8-.1s.4-.4.5-.7c.5-2.6 2.8-4.5 5.4-4.5 1.8 0 3.5.9 4.5 2.4.2.2.4.4.7.4.3.1.6 0 .8-.2 1-.8 2.2-1.2 3.4-1.2 2.5 0 4.7 1.7 5.3 4.1 0 .3.3.6.6.7.4.2.7.1 1-.1.7-.5 1.5-.8 2.3-.8 2.1 0 3.9 1.8 3.9 4s-1.7 4-3.9 4H131l2.7-2.7c.4-.4.4-1.1 0-1.5s-1.1-.4-1.5 0l-4.5 4.5c-.3.3-.4.7-.2 1.1.2.3.6.6 1 .6h19c3.3 0 6.1-2.3 6.1-5.7s-2.7-6.1-6-6.1c-.8 0-1.6.2-2.3.5-1.2-2.7-3.9-4.5-6.9-4.5-1.4 0-2.7.3-3.8 1-1.4-1.6-3.4-2.5-5.6-2.5-3.3 0-6.1 2.1-7.1 5.1-.3-.1-.6-.1-.9-.1-3.5 0-6.3 2.8-6.3 6.3 0 .5.5 1 1 1z"/><path fill="#ccccd1" d="M125.3 16.8c.3 0 .5-.1.8-.3l7.4-7.4c.4-.4.4-1.1 0-1.5-.4-.4-1.1-.4-1.5 0l-7.4 7.4c-.4.4-.4 1.1 0 1.5.2.2.4.3.7.3zM138.5 10.8l-3.6 3.6c-.4.4-.4 1.1 0 1.5.2.2.4.3.7.3.2 0 .5-.1.8-.3l3.6-3.6c.4-.4.4-1.1 0-1.5s-1.1-.4-1.5 0zM143.1 10.8l-3.6 3.6c-.4.4-.4 1.1 0 1.5.2.2.4.3.7.3s.5-.1.8-.3l3.6-3.6c.4-.4.4-1.1 0-1.5-.4-.4-1.1-.4-1.5 0zM144.5 15.9c.2.2.4.3.7.3s.5-.1.8-.3l2.3-2.3c.4-.4.4-1.1 0-1.5s-1.1-.4-1.5 0l-2.3 2.3c-.4.4-.4 1.1 0 1.5zM530.2 40.1l16-16c.4-.4.4-1.2 0-1.6s-1.2-.4-1.6 0l-16 16c-.4.4-.4 1.2 0 1.6.4.4 1.1.4 1.6 0zM530.2 47l16-16c.4-.4.4-1.2 0-1.6s-1.2-.4-1.6 0l-16 16c-.4.4-.4 1.2 0 1.6.4.4 1.1.4 1.6 0zM530.2 53.8l16-16c.4-.4.4-1.2 0-1.6-.4-.4-1.2-.4-1.6 0l-16 16c-.4.4-.4 1.2 0 1.6.4.4 1.1.5 1.6 0zM530.5 13.4l9.8-9.8c.4-.4.4-1.2 0-1.6s-1.2-.4-1.6 0l-9.8 9.8c-.4.4-.4 1.2 0 1.6.5.5 1.2.5 1.6 0zM530.5 7.2l3.6-3.6c.4-.4.4-1.2 0-1.6s-1.2-.4-1.6 0l-3.6 3.6c-.4.4-.4 1.2 0 1.6.5.5 1.2.5 1.6 0zM530.2 33l16-16c.4-.4.4-1.2 0-1.6-.4-.4-1.2-.4-1.6 0l-16 16c-.4.4-.4 1.2 0 1.6s1.1.5 1.6 0zM530.2 26.8l16-16c.4-.4.4-1.2 0-1.6-.4-.4-1.2-.4-1.6 0l-16 16c-.4.4-.4 1.2 0 1.6s1.1.5 1.6 0zM530.2 20l16-16c.4-.4.4-1.2 0-1.6s-1.2-.4-1.6 0l-16 16c-.4.4-.4 1.2 0 1.6.4.4 1.1.4 1.6 0zM439.2 29.3c-.4-.4-1.1-.4-1.5 0l-5.8 5.8c-.3.3-.4.7-.2 1.1.2.3.6.6 1 .6h3.5c.6 0 1-.5 1-1s-.4-1-1-1h-1l4-4c.4-.4.4-1.1 0-1.5z"/><path fill="#ccccd1" d="M429.5 31.8c.5 0 1-.4 1-1 0-2.3 1.9-4.2 4.2-4.2.4 0 .9.1 1.3.2.2.1.5.1.8-.1s.4-.4.5-.7c.5-2.6 2.8-4.5 5.4-4.5 1.8 0 3.5.9 4.5 2.4.2.2.4.4.7.4s.6 0 .8-.2c1-.8 2.2-1.2 3.4-1.2 2.5 0 4.7 1.7 5.3 4.1 0 .3.3.6.6.7.4.2.7.1 1-.1.7-.5 1.5-.8 2.3-.8 2.1 0 3.9 1.8 3.9 4s-1.7 4-3.9 4h-16.5l2.7-2.7c.4-.4.4-1.1 0-1.5s-1.1-.4-1.5 0l-4.5 4.5c-.3.3-.4.7-.2 1.1.2.3.6.6 1 .6h19c3.3 0 6.1-2.3 6.1-5.7s-2.7-6.1-6-6.1c-.8 0-1.6.2-2.3.5-1.2-2.7-3.9-4.5-6.9-4.5-1.4 0-2.7.3-3.8 1-1.4-1.6-3.4-2.5-5.6-2.5-3.3 0-6.1 2.1-7.1 5.1-.3-.1-.6-.1-.9-.1-3.5 0-6.3 2.8-6.3 6.3 0 .5.5 1 1 1z"/><path fill="#ccccd1" d="M439.1 35.2c.2 0 .5-.1.8-.3l7.4-7.4c.4-.4.4-1.1 0-1.5s-1.1-.4-1.5 0l-7.4 7.4c-.4.4-.4 1.1 0 1.5.2.2.4.3.7.3zM452.2 29.2l-3.6 3.6c-.4.4-.4 1.1 0 1.5.2.2.4.3.7.3.3 0 .6-.1.8-.3l3.6-3.6c.4-.4.4-1.1 0-1.5-.4-.4-1.1-.4-1.5 0zM456.9 29.2l-3.6 3.6c-.4.4-.4 1.1 0 1.5.2.2.4.3.7.3s.5-.1.8-.3l3.6-3.6c.4-.4.4-1.1 0-1.5s-1.1-.4-1.5 0zM458.3 34.3c.2.2.4.3.7.3.2 0 .5-.1.8-.3l2.3-2.3c.4-.4.4-1.1 0-1.5s-1.1-.4-1.5 0l-2.3 2.3c-.4.4-.4 1.1 0 1.5zM603.2 49.5l-9.8 9.8c-.4.4-.4 1.2 0 1.6.4.4 1.2.4 1.6 0l9.8-9.8c.4-.4.4-1.1 0-1.6-.4-.4-1.2-.4-1.6 0zM603.2 55.7l-3.6 3.6c-.4.4-.4 1.2 0 1.6.4.4 1.2.4 1.6 0l3.6-3.6c.4-.4.4-1.2 0-1.6-.5-.4-1.2-.4-1.6 0zM566.9 61.3c.4.4 1.2.4 1.6 0l16-16c.5-.4.5-1.2 0-1.6-.4-.4-1.2-.4-1.6 0l-16 16c-.4.4-.4 1.2 0 1.6zM573.8 61.3c.4.4 1.2.4 1.6 0l16-16c.4-.4.4-1.2 0-1.6-.4-.4-1.2-.4-1.6 0l-16 16c-.4.4-.4 1.2 0 1.6zM580.7 61.3c.4.4 1.2.4 1.6 0l16-16c.4-.4.4-1.2 0-1.6-.4-.4-1.2-.4-1.6 0l-16 16c-.4.4-.4 1.2 0 1.6zM586.8 61.3c.4.4 1.2.4 1.6 0l16-16c.5-.4.5-1.2 0-1.6-.4-.4-1.2-.4-1.6 0l-16 16c-.4.4-.4 1.2 0 1.6zM544.2 49l-10.5 10.5c-.4.4-.4 1.2 0 1.6.4.4 1.2.4 1.6 0l5.3-5.3c.2-.1.3-.2.4-.3l9.8-9.8c.4-.4.4-1.2 0-1.6-.4-.4-1.2-.4-1.6 0l-4.6 4.6c-.1.1-.3.1-.4.3zM530.2 60l10.5-10.5c.1 0 .2-.1.3-.2l3.6-3.6c.1-.1.2-.2.3-.4l1.3-1.3c.4-.4.4-1.2 0-1.6-.4-.4-1.2-.4-1.6 0l-16 16c-.4.4-.4 1.2 0 1.6.4.4 1.2.4 1.6 0zM559.7 61.3c.4.4 1.2.4 1.6 0l16-16c.5-.4.5-1.2 0-1.6-.4-.4-1.2-.4-1.6 0l-16 16c-.4.4-.4 1.2 0 1.6zM552.8 61.3c.4.4 1.2.4 1.6 0l16-16c.5-.4.5-1.2 0-1.6-.4-.4-1.2-.4-1.6 0l-16 16c-.4.4-.4 1.2 0 1.6zM546.7 61.3c.4.4 1.2.4 1.6 0l16-16c.4-.4.4-1.2 0-1.6-.4-.4-1.2-.4-1.6 0l-16 16c-.4.4-.4 1.2 0 1.6zM544.2 55.2l-3.6 3.6c-.1.1-.2.2-.3.4l-.6.6c-.4.4-.4 1.2 0 1.6.4.4 1.2.4 1.6 0l16-16c.5-.5.5-1.3.1-1.7s-1.2-.4-1.6 0l-11.2 11.2c-.1.1-.3.1-.4.3zM531.9 70.7c0-.5-.4-1-1-1h-15.6c-.5 0-1 .5-1 1s.4 1 1 1h15.6c.5 0 1-.5 1-1zM531.3 75.1c0-.5-.4-1-1-1H516c-.5 0-1 .4-1 1v8.6c0 .5.4 1 1 1h14.4c.5 0 1-.4.9-1v-8.6zm-9 7.6h-5.2v-3.5h5.2v3.5zm0-5.5h-5.2v-1h5.2v1zm7.1 5.5h-5.1v-3.5h5.1v3.5zm0-5.5h-5.1v-1h5.1v1zM530.3 87.9H516c-.5 0-1 .4-1 1v8.6c0 .5.4 1 1 1h14.4c.5 0 1-.5.9-1v-8.6c0-.5-.4-1-1-1zm-8 8.5h-5.2V93h5.2v3.4zm0-5.4h-5.2v-1.1h5.2V91zm7.1 5.4h-5.1V93h5.1v3.4zm0-5.4h-5.1v-1.1h5.1V91zM528.4 118.9c.2 0 .5-.1.8-.3l2.7-2.7c.4-.4.4-1.1 0-1.5s-1.1-.4-1.5 0l-2.7 2.7c-.4.4-.4 1.1 0 1.5.2.2.4.3.7.3zM528.4 124.4c.2 0 .5-.1.8-.3l2.7-2.7c.4-.4.4-1.1 0-1.5s-1.1-.4-1.5 0l-2.7 2.7c-.4.4-.4 1.1 0 1.5.2.2.4.3.7.3zM515.3 118.9c.3 0 .6-.1.8-.3l2.7-2.7c.4-.4.4-1.1 0-1.5s-1.1-.4-1.5 0l-2.7 2.7c-.4.4-.4 1.1 0 1.5.2.2.4.3.7.3zM515.3 124.4c.3 0 .6-.1.8-.3l2.7-2.7c.4-.4.4-1.1 0-1.5s-1.1-.4-1.5 0l-2.7 2.7c-.4.4-.4 1.1 0 1.5.2.2.4.3.7.3zM505.1 76.2c.2.2.4.3.7.3.3 0 .5-.1.8-.3l4.9-4.9c.4-.4.4-1.1 0-1.5s-1.1-.4-1.5 0l-4.9 4.9c-.4.4-.4 1.1 0 1.5zM505.1 81.7c.2.2.4.3.7.3.3 0 .5-.1.8-.3l4.9-4.9c.4-.4.4-1.1 0-1.5s-1.1-.4-1.5 0l-4.9 4.9c-.4.4-.4 1.1 0 1.5zM505.1 87.2c.2.2.4.3.7.3.3 0 .5-.1.8-.3l4.9-4.9c.4-.4.4-1.1 0-1.5s-1.1-.4-1.5 0l-4.9 4.9c-.4.4-.4 1.1 0 1.5zM505.1 92.7c.2.2.4.3.7.3.3 0 .5-.1.8-.3l4.9-4.9c.4-.4.4-1.1 0-1.5s-1.1-.4-1.5 0l-4.9 4.9c-.4.4-.4 1.1 0 1.5zM505.1 98.1c.2.2.4.3.7.3.3 0 .5 0 .8-.3l4.9-4.9c.4-.4.4-1.1 0-1.5s-1.1-.4-1.5 0l-4.9 4.9c-.4.4-.4 1.1 0 1.5z"/><circle fill="#ccccd1" cx="505.8" cy="70.7" r="1"/><path fill="#ccccd1" d="M609.6 69.8l-4.9 4.9c-.4.4-.4 1.1 0 1.5.2.2.4.3.7.3s.6-.1.8-.3l4.9-4.9c.4-.4.4-1.1 0-1.5s-1.1-.4-1.5 0zM609.6 75.3l-4.9 4.9c-.4.4-.4 1.1 0 1.5.2.2.4.3.7.3s.6-.1.8-.3l4.9-4.9c.4-.4.4-1.1 0-1.5s-1.1-.4-1.5 0zM609.6 80.8l-4.9 4.9c-.4.4-.4 1.1 0 1.5.2.2.4.3.7.3s.6-.1.8-.3l4.9-4.9c.4-.4.4-1.1 0-1.5s-1.1-.4-1.5 0zM609.6 86.3l-4.9 4.9c-.4.4-.4 1.1 0 1.5.2.2.4.3.7.3s.6-.1.8-.3l4.9-4.9c.4-.4.4-1.1 0-1.5s-1.1-.4-1.5 0zM609.6 91.7l-4.9 4.9c-.4.4-.4 1.1 0 1.5.2.2.4.3.7.3s.6 0 .8-.3l4.9-4.9c.4-.4.4-1.1 0-1.5-.4-.4-1.1-.4-1.5 0z"/><path fill="#ccccd1" d="M609.6 97.9l-3.8 3.8h-27.4l2.8-2.8c.4-.4.4-1.1 0-1.5s-1.1-.4-1.5 0l-4.1 4.1c-.1.1-.1.1-.1.2h-2.6l8.4-8.4c.4-.4.4-1.1 0-1.5s-1.1-.4-1.5 0l-9.9 9.9h-26.6l2.9-2.8c.4-.4.4-1.1 0-1.5s-1.1-.4-1.5 0l-4.1 4.1c-.1.1-.1.1-.1.2h-2.7l8.4-8.4c.4-.4.4-1.1 0-1.5s-1.1-.4-1.5 0l-9.9 9.9h-25.6l2.3-2.3c.4-.4.4-1.1 0-1.5s-1.1-.4-1.5 0l-3.8 3.8h-.5c-.5 0-1 .4-1 1v28.4c0 .5.4 1 1 1H610.1c.6 0 1-.4 1-1v-28.4c0-.5-.4-1-1-1h-1.3l2.3-2.3c.4-.4.4-1.1 0-1.5-.4-.4-1.1-.4-1.5 0zm-100.1 32.2h-2.8v-19.9h2.8v19.9zm12.4 0h-10.4v-19.9h10.4v19.9zm12.8 0h-10.8v-19.9h10.8v19.9zm4.8 0h-2.8v-19.9h2.8v19.9zm0-25.1v3.2h-32.7v-4.4h32.7v1.2zm17.2 25.1h-15.2v-19.9h15.2v19.9zm12.8 0h-10.8v-19.9h10.8v19.9zm4.8-6c-.1.1-.1.3-.1.4s0 .3.1.4v5.2h-2.8v-19.9h2.8v13.9zm0-19.1v3.2h-32.7v-4.4h32.7v1.2zm11.6 25.1h-9.6v-4.6h9.6v4.6zm0-6.6h-9.6v-13.3h9.6v13.3zm12.2 6.6h-10.2v-19.9h10.2v19.9zm11 0h-9v-4.7c.1.1.3.1.4.1h8.6v4.6zm0-6.6h-8.6c-.1 0-.3 0-.4.1v-13.4h9v13.3zm0-19.7v4.4h-32.8v-4.4h32.8z"/><circle fill="#ccccd1" cx="605.4" cy="70.7" r="1"/><path fill="#ccccd1" d="M566.6 70.7c0-.5-.4-1-1-1H550c-.5 0-1 .5-1 1s.4 1 1 1h15.7c.5 0 .9-.5.9-1zM612.4 64.9H504c-.5 0-1 .5-1 1s.4 1 1 1h108.4c.6 0 1-.5 1-1s-.4-1-1-1zM566.1 75.1c0-.5-.4-1-1-1h-14.3c-.5 0-1 .4-1 1v8.6c0 .5.4 1 1 1h14.3c.6 0 1.1-.4 1-1v-8.6zm-9.1 7.6h-5.1v-3.5h5.1v3.5zm0-5.5h-5.1v-1h5.1v1zm7.2 5.5H559v-3.5h5.2v3.5zm0-5.5H559v-1h5.2v1zM565.1 87.9h-14.3c-.5 0-1 .4-1 1v8.6c0 .5.4 1 1 1h14.3c.6 0 1.1-.5 1-1v-8.6c0-.5-.4-1-1-1zm-8.1 8.5h-5.1V93h5.1v3.4zm0-5.4h-5.1v-1.1h5.1V91zm7.2 5.4H559V93h5.2v3.4zm0-5.4H559v-1.1h5.2V91zM563.2 118.9c.2 0 .5-.1.8-.3l2.7-2.7c.4-.4.4-1.1 0-1.5s-1.1-.4-1.5 0l-2.7 2.7c-.4.4-.4 1.1 0 1.5.2.2.4.3.7.3zM563.2 124.4c.2 0 .5-.1.8-.3l2.7-2.7c.4-.4.4-1.1 0-1.5s-1.1-.4-1.5 0l-2.7 2.7c-.4.4-.4 1.1 0 1.5.2.2.4.3.7.3z"/><circle fill="#ccccd1" cx="535.5" cy="70.7" r="1"/><path fill="#ccccd1" d="M534.8 81.3c.2.2.4.3.7.3s.6-.1.8-.3l9.9-9.9c.4-.4.4-1.1 0-1.5s-1.1-.4-1.5 0l-9.9 9.9c-.4.4-.4 1.1 0 1.5zM534.8 75.8c.2.2.4.3.7.3s.6-.1.8-.3l4.1-4.1c.4-.4.4-1.1 0-1.5s-1.1-.4-1.5 0l-4.1 4.1c-.4.4-.4 1.1 0 1.5zM534.8 86.7c.2.2.4.3.7.3s.6-.1.8-.3l9.9-9.9c.4-.4.4-1.1 0-1.5s-1.1-.4-1.5 0l-9.9 9.9c-.4.4-.4 1.1 0 1.5zM534.8 92.2c.2.2.4.3.7.3s.6-.1.8-.3l9.9-9.9c.4-.4.4-1.1 0-1.5s-1.1-.4-1.5 0l-9.9 9.9c-.4.4-.4 1.1 0 1.5zM534.8 97.7c.2.2.4.3.7.3s.6-.1.8-.3l9.9-9.9c.4-.4.4-1.1 0-1.5s-1.1-.4-1.5 0l-9.9 9.9c-.4.4-.4 1.1 0 1.5zM545.6 124.3h6.2c.6 0 1.1-.5 1-1v-7.6c0-.5-.4-1-1-1h-6.2c-.5 0-1 .4-1 1v7.6c0 .5.4 1 1 1zm1.1-7.6h4.1v5.5h-4.1v-5.5zM601.7 70.7c0-.5-.4-1-1-1h-15.6c-.5 0-1 .5-1 1s.4 1 1 1h15.6c.6 0 1-.5 1-1zM601.2 75.1c0-.5-.4-1-1-1h-14.3c-.5 0-1 .4-1 1v8.6c0 .5.4 1 1 1h14.3c.6 0 1-.4 1-1v-8.6zm-9.1 7.6h-5.2v-3.5h5.2v3.5zm0-5.5h-5.2v-1h5.2v1zm7.1 5.5h-5.1v-3.5h5.1v3.5zm0-5.5h-5.1v-1h5.1v1zM600.2 87.9h-14.3c-.5 0-1 .4-1 1v8.6c0 .5.4 1 1 1h14.3c.6 0 1-.5 1-1v-8.6c0-.5-.4-1-1-1zm-8.1 8.5h-5.2V93h5.2v3.4zm0-5.4h-5.2v-1.1h5.2V91zm7.1 5.4h-5.1V93h5.1v3.4zm0-5.4h-5.1v-1.1h5.1V91zM591.7 118.9c.3 0 .6-.1.8-.3l2.7-2.7c.4-.4.4-1.1 0-1.5s-1.1-.4-1.5 0l-2.7 2.7c-.4.4-.4 1.1 0 1.5.2.2.4.3.7.3zM591.7 124.4c.3 0 .6-.1.8-.3l2.7-2.7c.4-.4.4-1.1 0-1.5s-1.1-.4-1.5 0l-2.7 2.7c-.4.4-.4 1.1 0 1.5.2.2.4.3.7.3z"/><circle fill="#ccccd1" cx="570.6" cy="70.7" r="1"/><path fill="#ccccd1" d="M569.9 81.3c.2.2.4.3.7.3s.5-.1.8-.3l9.9-9.9c.4-.4.4-1.1 0-1.5s-1.1-.4-1.5 0l-9.9 9.9c-.4.4-.4 1.1 0 1.5zM569.9 75.8c.2.2.4.3.7.3s.5-.1.8-.3l4.1-4.1c.4-.4.4-1.1 0-1.5s-1.1-.4-1.5 0l-4.1 4.1c-.4.4-.4 1.1 0 1.5zM569.9 86.7c.2.2.4.3.7.3s.5-.1.8-.3l9.9-9.9c.4-.4.4-1.1 0-1.5s-1.1-.4-1.5 0l-9.9 9.9c-.4.4-.4 1.1 0 1.5zM569.9 92.2c.2.2.4.3.7.3s.5-.1.8-.3l9.9-9.9c.4-.4.4-1.1 0-1.5s-1.1-.4-1.5 0l-9.9 9.9c-.4.4-.4 1.1 0 1.5zM569.9 97.7c.2.2.4.3.7.3s.5-.1.8-.3l9.9-9.9c.4-.4.4-1.1 0-1.5s-1.1-.4-1.5 0l-9.9 9.9c-.4.4-.4 1.1 0 1.5zM614.4 101.8c-.5 0-1 .5-1 1s.4 1 1 1c2.4 0 4.4 1.7 4.9 4h-4.8c-.5 0-1 .5-1 1s.4 1 1 1h6c.6 0 1-.4 1-.9 0-3.9-3.2-7.1-7.1-7.1zM402.8 74.6c.6 0 1.1-.5 1.1-1.1s-.5-1.1-1.1-1.1-1.1.5-1.1 1.1c0 .6.5 1.1 1.1 1.1zM398.3 73.5c0 .6.5 1.1 1.1 1.1s1.1-.5 1.1-1.1-.5-1.1-1.1-1.1-1.1.5-1.1 1.1zM414.6 109.3c.6 0 1-.5 1-1.1V97.4c0-.5-.4-1-1-1h-7.4c-.5 0-1 .4-1 1v10.9c0 .5.4 1 1 1h7.4zm-6.3-10.8h5.3v1.1h-5.3v-1.1zm0 3.1h5.3v5.6h-5.3v-5.6z"/><circle fill="#ccccd1" cx="410.9" cy="117.8" r="1.5"/><path fill="#ccccd1" d="M319.7 22.2l-9.8 9.8c-.4.4-.4 1.2 0 1.6.4.4 1.2.4 1.6 0l9.8-9.8c.4-.4.4-1.2 0-1.6-.5-.4-1.2-.4-1.6 0zM319.7 28.4L316 32c-.4.4-.4 1.2 0 1.6.4.4 1.2.4 1.6 0l3.6-3.6c.4-.4.4-1.2 0-1.6-.4-.4-1.1-.4-1.5 0zM277.2 34c.5.4 1.2.4 1.6 0l16-16c.4-.4.4-1.2 0-1.6-.4-.4-1.2-.4-1.6 0l-16 16c-.4.4-.4 1.2 0 1.6zM283.4 34c.4.4 1.2.4 1.6 0l16-16c.4-.4.4-1.2 0-1.6-.4-.4-1.2-.4-1.6 0l-16 16c-.4.4-.4 1.2 0 1.6zM290.3 34c.4.4 1.1.4 1.6 0l16-16c.4-.4.4-1.2 0-1.6-.4-.4-1.2-.4-1.6 0l-16 16c-.4.4-.4 1.2 0 1.6zM297.2 34c.4.4 1.1.4 1.6 0l16-16c.4-.4.4-1.2 0-1.6-.4-.4-1.2-.4-1.6 0l-16 16c-.4.4-.4 1.2 0 1.6zM303.3 34c.5.4 1.2.4 1.6 0l16-16c.4-.4.4-1.2 0-1.6-.4-.4-1.2-.4-1.6 0l-16 16c-.4.4-.4 1.2 0 1.6zM244.5 28.1l9.8-9.8c.4-.4.4-1.2 0-1.6s-1.2-.4-1.6 0l-9.8 9.8c-.4.4-.4 1.2 0 1.6.5.5 1.2.5 1.6 0zM244.5 22l3.6-3.6c.4-.4.4-1.2 0-1.6s-1.2-.4-1.6 0l-3.6 3.6c-.4.4-.4 1.2 0 1.6.5.4 1.2.4 1.6 0zM270.1 34c.4.4 1.2.4 1.6 0l16-16c.4-.4.4-1.2 0-1.6-.5-.5-1.2-.5-1.6 0l-16 16c-.4.4-.4 1.2 0 1.6zM263.2 34c.4.4 1.2.4 1.6 0l16-16c.4-.4.4-1.2 0-1.6-.4-.5-1.2-.5-1.6 0l-16 16c-.4.4-.4 1.2 0 1.6zM256.3 34c.4.4 1.2.4 1.6 0l16-16c.4-.4.4-1.2 0-1.6-.4-.5-1.1-.5-1.6 0l-16 16c-.4.4-.4 1.2 0 1.6zM250.1 34c.4.4 1.2.4 1.6 0l16-16c.4-.4.4-1.2 0-1.6-.4-.5-1.1-.5-1.6 0l-16 16c-.4.4-.4 1.2 0 1.6zM243.3 34c.4.4 1.2.4 1.6 0l16-16c.4-.4.4-1.2 0-1.6-.5-.5-1.2-.5-1.6 0l-16 16c-.4.4-.4 1.2 0 1.6zM334.1 42.4c0-.5-.4-1-1-1h-34.8c-.5 0-1 .5-1 1s.4 1 1 1h34.8c.5 0 1-.5 1-1zM399.1 37.9c0-.5-.4-1-1-1H226.3c-.5 0-1 .5-1 1s.4 1 1 1h171.8c.6 0 1-.5 1-1zM341.6 99.5c0 .5.4 1 1 1h14.8c.5 0 1-.5.9-1v-57c0-.5-.4-1-1-1h-16.1c-.1 0-.3 0-.4.1-.3 0-.5.1-.7.3l-7 7c-.4.4-.4 1.1 0 1.5.2.2.4.3.7.3.3 0 .5-.1.8-.3l6.9-6.9h14.8v55h-13.7c-.5 0-1 .5-1 1z"/><path fill="#ccccd1" d="M349.6 59v-5c0-.5-.5-1-1-1s-1 .4-1 1v5c0 .5.4 1 1 1 .5 0 1-.5 1-1zM347.6 72.7c0 .5.4 1 1 1 .5 0 1-.4 1-1v-5c0-.5-.5-1-1-1s-1 .4-1 1v5zM347.6 86.5c0 .5.4 1 1 1 .5 0 1-.5 1-1v-5c0-.5-.5-1-1-1s-1 .4-1 1v5zM278.3 99.5c0 .5.4 1 1 1h14.8c.6 0 1.1-.5 1-1v-57c0-.5-.4-1-1-1H278c-.1 0-.3 0-.4.1-.3 0-.5.1-.7.3l-7 7c-.4.4-.4 1.1 0 1.5.2.2.4.3.7.3s.5-.1.8-.3l6.9-6.9H293v55h-13.7c-.5 0-1 .5-1 1z"/><path fill="#ccccd1" d="M276.7 49.8c-.4-.4-1.1-.4-1.5 0l-5.3 5.3c-.4.4-.4 1.1 0 1.5.2.2.4.3.7.3s.5-.1.8-.3l5.3-5.3c.4-.4.4-1.1 0-1.5zM276.7 56c-.4-.4-1.1-.4-1.5 0l-5.3 5.3c-.4.4-.4 1.1 0 1.5.2.2.4.3.7.3s.5-.1.8-.3l5.3-5.3c.4-.4.4-1.1 0-1.5zM276.7 62.2c-.4-.4-1.1-.4-1.5 0l-5.3 5.3c-.4.4-.4 1.1 0 1.5.2.2.4.3.7.3s.5-.1.8-.3l5.3-5.3c.4-.4.4-1.1 0-1.5zM276.7 68.4c-.4-.4-1.1-.4-1.5 0l-5.3 5.3c-.4.4-.4 1.1 0 1.5.2.2.4.3.7.3s.5-.1.8-.3l5.3-5.3c.4-.4.4-1.1 0-1.5zM276.7 74.5c-.4-.4-1.1-.4-1.5 0l-5.3 5.3c-.4.4-.4 1.1 0 1.5.2.2.4.3.7.3s.5-.1.8-.3l5.3-5.3c.4-.4.4-1.1 0-1.5zM276.7 80.7c-.4-.4-1.1-.4-1.5 0l-5.3 5.3c-.4.4-.4 1.1 0 1.5.2.2.4.3.7.3s.5-.1.8-.3l5.3-5.3c.4-.4.4-1.1 0-1.5zM276.7 86.9c-.4-.4-1.1-.4-1.5 0l-5.3 5.3c-.4.4-.4 1.1 0 1.5.2.2.4.3.7.3s.5-.1.8-.3l5.3-5.3c.4-.4.4-1.1 0-1.5zM276.7 93.1c-.4-.4-1.1-.4-1.5 0l-5.3 5.3c-.4.4-.4 1.1 0 1.5.2.2.4.3.7.3s.5-.1.8-.3l5.3-5.3c.4-.4.4-1.1 0-1.5zM275.2 99.3l-5.3 5.3c-.4.4-.4 1.1 0 1.5.2.2.4.3.7.3s.5-.1.8-.3l5.3-5.3c.4-.4.4-1.1 0-1.5-.4-.4-1.1-.4-1.5 0zM339.9 49.8c-.4-.4-1.1-.4-1.5 0l-5.3 5.3c-.4.4-.4 1.1 0 1.5.2.2.4.3.7.3.3 0 .5-.1.8-.3l5.3-5.3c.4-.4.4-1.1 0-1.5zM339.9 56c-.4-.4-1.1-.4-1.5 0l-5.3 5.3c-.4.4-.4 1.1 0 1.5.2.2.4.3.7.3.3 0 .5-.1.8-.3l5.3-5.3c.4-.4.4-1.1 0-1.5zM339.9 62.2c-.4-.4-1.1-.4-1.5 0l-5.3 5.3c-.4.4-.4 1.1 0 1.5.2.2.4.3.7.3.3 0 .5-.1.8-.3l5.3-5.3c.4-.4.4-1.1 0-1.5zM339.9 68.4c-.4-.4-1.1-.4-1.5 0l-5.3 5.3c-.4.4-.4 1.1 0 1.5.2.2.4.3.7.3.3 0 .5-.1.8-.3l5.3-5.3c.4-.4.4-1.1 0-1.5zM339.9 74.5c-.4-.4-1.1-.4-1.5 0l-5.3 5.3c-.4.4-.4 1.1 0 1.5.2.2.4.3.7.3.3 0 .5-.1.8-.3l5.3-5.3c.4-.4.4-1.1 0-1.5zM339.9 80.7c-.4-.4-1.1-.4-1.5 0l-5.3 5.3c-.4.4-.4 1.1 0 1.5.2.2.4.3.7.3.3 0 .5-.1.8-.3l5.3-5.3c.4-.4.4-1.1 0-1.5zM339.9 86.9c-.4-.4-1.1-.4-1.5 0l-5.3 5.3c-.4.4-.4 1.1 0 1.5.2.2.4.3.7.3.3 0 .5-.1.8-.3l5.3-5.3c.4-.4.4-1.1 0-1.5zM339.9 93.1c-.4-.4-1.1-.4-1.5 0l-5.3 5.3c-.4.4-.4 1.1 0 1.5.2.2.4.3.7.3.3 0 .5-.1.8-.3l5.3-5.3c.4-.4.4-1.1 0-1.5zM338.4 99.3l-5.3 5.3c-.4.4-.4 1.1 0 1.5.2.2.4.3.7.3.3 0 .5-.1.8-.3l5.3-5.3c.4-.4.4-1.1 0-1.5s-1.1-.4-1.5 0zM286.8 59v-5c0-.5-.5-1-1-1s-1 .4-1 1v5c0 .5.4 1 1 1s1-.5 1-1zM284.8 72.7c0 .5.4 1 1 1s1-.4 1-1v-5c0-.5-.5-1-1-1s-1 .4-1 1v5zM284.8 86.5c0 .5.4 1 1 1s1-.5 1-1v-5c0-.5-.5-1-1-1s-1 .4-1 1v5z"/><path fill="#ccccd1" d="M389.2 130h-.8v-16.7c0-.5-.4-1-1-1h-2.9v-7.1h2.7c.6 0 1-.4 1-1.1V92.5c0-.5-.4-1-1-1h-2.7v-7.1h2.7c.6 0 1-.5 1-1.1V71.8c0-.5-.4-1-1-1h-2.7v-7.1h2.7c.6 0 1-.5 1-1.1V51c0-.5-.4-1-1-1h-7.4c-.5 0-1 .4-1 1v11.7c0 .5.4 1 1 1h2.7v7.1h-2.7c-.5 0-1 .4-1 1v11.7c0 .5.4 1 1 1h2.7v7.1h-2.7c-.5 0-1 .4-1 1v11.7c0 .5.4 1 1 1h2.7v7.1H380c-.5 0-1 .4-1 1V130h-4.6v-16.7c0-.5-.4-1-1-1h-2.6v-7.1h2.6c.6 0 1.1-.4 1-1.1V92.5c0-.5-.4-1-1-1h-2.6v-7.1h2.6c.6 0 1.1-.5 1-1.1V71.8c0-.5-.4-1-1-1h-2.6v-7.1h2.6c.6 0 1.1-.5 1-1.1V51c0-.5-.4-1-1-1H366c-.5 0-1 .4-1 1v11.7c0 .5.4 1 1 1h2.8v7.1H366c-.5 0-1 .4-1 1v11.7c0 .5.4 1 1 1h2.8v7.1H366c-.5 0-1 .4-1 1v11.7c0 .5.4 1 1 1h2.8v7.1H366c-.5 0-1 .4-1 1V130h-8.3v-16.7c0-.5-.4-1-1-1h-7.4c-.5 0-1 .4-1 1V130h-4.5v-16.7c0-.5-.4-1-1-1h-7.4c-.5 0-1 .4-1 1V130H325v-16.7c0-.5-.4-1-1-1h-2.7v-7.1h2.7c.5 0 1-.4 1-1.1V92.5c0-.5-.4-1-1-1h-2.7v-7.1h2.6c.6 0 1.1-.5 1-1.1V71.8c0-.5-.4-1-1-1h-2.6v-7.1h2.7c.5 0 1-.5 1-1.1V51c0-.5-.4-1-1-1h-7.4c-.5 0-1 .4-1 1v11.7c0 .5.4 1 1 1h2.7v7.1h-2.8c-.5 0-1 .4-1 1v11.7c0 .5.4 1 1 1h2.8v7.1h-2.7c-.5 0-1 .4-1 1v11.7c0 .5.4 1 1 1h2.7v7.1h-2.7c-.5 0-1 .4-1 1V130h-4.4v-16.7c0-.5-.4-1-1-1h-2.7v-7.1h2.7c.6 0 1.1-.4 1-1.1V92.5c0-.5-.4-1-1-1h-2.7v-7.1h2.7c.6 0 1.1-.5 1-1.1V71.8c0-.5-.4-1-1-1h-2.7v-7.1h2.7c.6 0 1.1-.5 1-1.1V51c0-.5-.4-1-1-1h-7.4c-.5 0-1 .4-1 1v11.7c0 .5.4 1 1 1h2.7v7.1h-2.7c-.5 0-1 .4-1 1v11.7c0 .5.4 1 1 1h2.7v7.1h-2.7c-.5 0-1 .4-1 1v11.7c0 .5.4 1 1 1h2.7v7.1h-2.7c-.5 0-1 .4-1 1V130h-9.3v-16.7c0-.5-.4-1-1-1h-7.4c-.5 0-1 .4-1 1V130h-4.5v-16.7c0-.5-.4-1-1-1h-7.4c-.5 0-1 .4-1 1V130h-8.8v-16.7c0-.5-.4-1-1-1h-2.7v-7.1h2.7c.5 0 1-.4 1-1.1V92.5c0-.5-.4-1-1-1h-2.7v-7.1h2.7c.5 0 1-.5 1-1.1V71.8c0-.5-.4-1-1-1h-2.7v-7.1h2.7c.5 0 1-.5 1-1.1V51c0-.5-.4-1-1-1H252c-.5 0-1 .4-1 1v11.7c0 .5.4 1 1 1h2.7v7.1H252c-.5 0-1 .4-1 1v11.7c0 .5.4 1 1 1h2.7v7.1H252c-.5 0-1 .4-1 1v11.7c0 .5.4 1 1 1h2.7v7.1H252c-.5 0-1 .4-1 1V130h-4.4v-16.7c0-.5-.4-1-1-1h-2.7v-7.1h2.7c.6 0 1.1-.4 1-1.1V92.5c0-.5-.4-1-1-1h-2.7v-7.1h2.7c.6 0 1.1-.5 1-1.1V71.8c0-.5-.4-1-1-1h-2.7v-7.1h2.7c.6 0 1.1-.5 1-1.1V51c0-.5-.4-1-1-1h-7.4c-.5 0-1 .4-1 1v11.7c0 .5.4 1 1 1h2.7v7.1h-2.7c-.5 0-1 .4-1 1v11.7c0 .5.4 1 1 1h2.7v7.1h-2.7c-.5 0-1 .4-1 1v11.7c0 .5.4 1 1 1h2.7v7.1h-2.7c-.5 0-1 .4-1 1V130h-6.4c-.6 0-1-.5-1-1V44.5c0-.6.5-1 1-1H270c.5 0 1-.5 1-1s-.4-1-1-1h-41.2c-.5 0-1 .4-1 1v88.7c0 .5.4 1 1 1H389.2c.6 0 1-.5 1-1s-.5-1.2-1-1.2zm-4.7-78h1.7v9.6h-1.7V52zm0 20.8h1.7v9.6h-1.7v-9.6zm0 20.8h1.7v9.6h-1.7v-9.6zM370.8 52h1.6v9.6h-1.6V52zm0 20.8h1.6v9.6h-1.6v-9.6zm0 20.8h1.6v9.6h-1.6v-9.6zM321.3 52h1.6v9.6h-1.6V52zm0 20.8h1.6v9.6h-1.6v-9.6zm0 20.8h1.6v9.6h-1.6v-9.6zM307.5 52h1.7v9.6h-1.7V52zm0 20.8h1.7v9.6h-1.7v-9.6zm0 20.8h1.7v9.6h-1.7v-9.6zM256.7 52h1.6v9.6h-1.6V52zm0 20.8h1.6v9.6h-1.6v-9.6zm0 20.8h1.6v9.6h-1.6v-9.6zM242.9 52h1.7v9.6h-1.7V52zm0 20.8h1.7v9.6h-1.7v-9.6zm0 20.8h1.7v9.6h-1.7v-9.6zm-2 36.4h-1.6v-15.7h1.6V130zm0-26.8h-1.6v-9.6h1.6v9.6zm0-20.8h-1.6v-9.6h1.6v9.6zm0-20.8h-1.6V52h1.6v9.6zm3.7 68.4h-1.7v-15.7h1.7V130zm10.1 0H253v-15.7h1.7V130zm0-26.8H253v-9.6h1.7v9.6zm0-20.8H253v-9.6h1.7v9.6zm0-20.8H253V52h1.7v9.6zm3.6 68.4h-1.6v-15.7h1.6V130zm14.6 0h-1.7v-15.7h1.7V130zm3.6 0h-1.6v-15.7h1.6V130zm10.1 0h-1.4v-15.7h1.4V130zm3.9 0h-1.9v-15.7h1.9V130zm15 0h-1.6v-15.7h1.6V130zm0-26.8h-1.6v-9.6h1.6v9.6zm0-20.8h-1.6v-9.6h1.6v9.6zm0-20.8h-1.6V52h1.6v9.6zm3.7 68.4h-1.7v-15.7h1.7V130zm10.1 0h-1.6v-15.7h1.6V130zm0-26.8h-1.7v-9.6h1.7v9.6zm0-20.8h-1.7v-9.6h1.7v9.6zm0-20.8h-1.7V52h1.7v9.6zM323 130h-1.7v-15.7h1.7V130zm14.2 0h-1.7v-15.7h1.7V130zm3.6 0h-1.6v-15.7h1.6V130zm10.1 0h-1.5v-15.7h1.5V130zm3.8 0h-1.8v-15.7h1.8V130zm14.1 0h-1.7v-15.7h1.7V130zm0-26.8h-1.7v-9.6h1.7v9.6zm0-20.8h-1.7v-9.6h1.7v9.6zm0-20.8h-1.7V52h1.7v9.6zm3.6 68.4h-1.6v-15.7h1.6V130zm10.1 0H381v-15.7h1.5V130zm0-26.8h-1.6v-9.6h1.6v9.6zm0-20.8h-1.6v-9.6h1.6v9.6zm0-20.8h-1.6V52h1.6v9.6zm3.8 68.4h-1.8v-15.7h1.8V130zM391.9 93.7c-.6 0-1.1.5-1.1 1.1s.5 1.1 1.1 1.1 1.1-.5 1.1-1.1-.5-1.1-1.1-1.1zM391.1 102c.4.4 1.2.4 1.6 0l6.7-6.7c.4-.4.4-1.2 0-1.6s-1.2-.4-1.6 0l-6.7 6.7c-.4.4-.4 1.2 0 1.6zM399.6 98.8l-8.5 8.5c-.4.4-.4 1.1 0 1.6.4.4 1.2.4 1.6 0l8.5-8.5c.4-.4.4-1.2 0-1.6-.4-.4-1.2-.4-1.6 0zM399.6 105.6l-8.5 8.5c-.4.5-.4 1.2 0 1.6s1.2.4 1.6 0l8.5-8.5c.4-.4.4-1.2 0-1.6-.4-.4-1.2-.4-1.6 0zM399.6 112.5l-8.5 8.5c-.4.4-.4 1.2 0 1.6s1.2.4 1.6 0l8.5-8.5c.4-.4.4-1.2 0-1.6-.4-.4-1.2-.4-1.6 0zM399.6 119.4l-8.5 8.5c-.4.4-.4 1.1 0 1.6.4.4 1.2.4 1.6 0l8.5-8.5c.4-.4.4-1.2 0-1.6-.4-.4-1.2-.4-1.6 0zM399.6 126.2l-3.7 3.7c-.4.5-.4 1.2 0 1.6.4.4 1.2.4 1.6 0l3.7-3.7c.4-.4.4-1.2 0-1.6-.4-.4-1.2-.4-1.6 0zM429 73.5c0 .6.5 1.1 1.1 1.1s1.1-.5 1.1-1.1-.5-1.1-1.1-1.1-1.1.5-1.1 1.1zM426.7 74.6c.6 0 1.1-.5 1.1-1.1s-.5-1.1-1.1-1.1-1.1.5-1.1 1.1.5 1.1 1.1 1.1zM441.9 109.3c.5 0 1-.5 1-1.1V97.4c0-.5-.4-1-1-1h-7.4c-.5 0-1 .4-1 1v10.9c0 .5.4 1 1 1h7.4zm-6.4-10.8h5.3v1.1h-5.3v-1.1zm0 3.1h5.3v5.6h-5.3v-5.6z"/><circle fill="#ccccd1" cx="438.2" cy="117.8" r="1.5"/><path fill="#ccccd1" d="M428.5 100.4c.4-.4.4-1.2 0-1.6s-1.2-.4-1.6 0l-6.9 6.9V102l6.7-6.7c.4-.4.4-1.2 0-1.6s-1.2-.4-1.6 0l-5.1 5.1v-4.4c0-.5-.5-1-1-1s-1 .4-1 1v35.5h-2.4v-15.5c0-.5-.4-1-1-1h-7.4c-.5 0-1 .4-1 1v15.5h-2.4c-.5 0-1 .5-1 1s.4 1 1 1H419c.6 0 1.1-.5 1-1v-1.4l8.5-8.5c.4-.4.4-1.2 0-1.6s-1.2-.4-1.6 0l-6.9 6.9v-3.7l8.5-8.5c.4-.4.4-1.2 0-1.6s-1.2-.4-1.6 0l-6.9 6.9v-3.7l8.5-8.5c.4-.4.4-1.2 0-1.6s-1.2-.4-1.6 0l-6.9 6.9v-3.6l8.5-8.5zm-14.9 29.4h-5.3v-14.5h5.3v14.5zM426.9 126.2l-3.7 3.7c-.5.5-.5 1.2 0 1.6.4.4 1.2.4 1.6 0l3.7-3.7c.4-.4.4-1.2 0-1.6s-1.2-.4-1.6 0zM469 109.3c.6 0 1-.5 1-1.1V97.4c0-.5-.4-1-1-1h-7.4c-.5 0-1 .4-1 1v10.9c0 .5.4 1 1 1h7.4zm-6.3-10.8h5.3v1.1h-5.3v-1.1zm0 3.1h5.3v5.6h-5.3v-5.6z"/><circle fill="#ccccd1" cx="465.3" cy="117.8" r="1.5"/><path fill="#ccccd1" d="M452.1 73.5c0 .6.5 1.1 1.1 1.1s1.1-.5 1.1-1.1-.5-1.1-1.1-1.1-1.1.5-1.1 1.1zM455.4 73.5c0 .6.5 1.1 1.1 1.1s1.1-.5 1.1-1.1-.5-1.1-1.1-1.1-1.1.5-1.1 1.1zM455.6 100.4c.4-.4.4-1.2 0-1.6s-1.2-.4-1.6 0l-6.7 6.7v-3.7l6.5-6.5c.4-.4.4-1.2 0-1.6s-1.2-.4-1.6 0l-4.9 4.9v-4.2c0-.5-.5-1-1-1s-1 .4-1 1v6.3c-.2.3-.2.8 0 1.1v5.8c-.2.3-.2.7 0 1.1v5.8c-.2.4-.2.7 0 1.1v5.8c-.2.3-.2.8 0 1.1v5.8c-.2.3-.2.7 0 1.1v.7h-2.4v-15.5c0-.5-.4-1-1-1h-7.4c-.5 0-1 .4-1 1v15.5h-2.4c-.5 0-1 .5-1 1s.4 1 1 1H446.3c.6 0 1-.5 1-1v-1.6l8.3-8.3c.4-.4.4-1.2 0-1.6s-1.2-.4-1.6 0l-6.7 6.7v-3.7l8.3-8.3c.4-.4.4-1.2 0-1.6s-1.2-.4-1.6 0l-6.7 6.7v-3.7l8.3-8.3c.4-.4.4-1.2 0-1.6s-1.2-.4-1.6 0l-6.7 6.7v-3.6l8.3-8.5zm-14.8 29.4h-5.3v-14.5h5.3v14.5zM454 126.2l-3.7 3.7c-.5.5-.5 1.2 0 1.6.4.4 1.2.4 1.6 0l3.7-3.7c.4-.4.4-1.2 0-1.6s-1.2-.4-1.6 0z"/><path fill="#ccccd1" d="M500.8 76.3H396.7V42.4c0-.5-.4-1-1-1h-34.6c-.5 0-1 .5-1 1s.4 1 1 1h33.6v32.9H392c-.5 0-1 .4-1 1v13.3c0 .5.5 1 1 1s1-.4 1-1V78.2h25.1v9.6l-6.1-7.1c-.2-.3-.5-.4-.8-.4s-.6.1-.8.3l-8.7 9.2c-.4.5-.4 1.1 0 1.5.5.4 1.1.4 1.5 0l7.9-8.3 7.1 8.3c.2.3.5.4.8.4h.3c.1 0 .1-.1.2-.1.4-.1.8-.4.8-1V78.2h25.1v9.6l-6.1-7.1c-.2-.3-.5-.4-.8-.4s-.6.1-.8.3l-8.7 9.2c-.4.5-.4 1.1 0 1.5.5.4 1.1.4 1.5 0l7.9-8.3 7.1 8.3c.2.3.5.4.8.4h.4c.4-.2.7-.6.7-1V78.2h25.1v9.6l-6.1-7.1c-.2-.3-.5-.4-.8-.4s-.6.1-.8.3l-8.7 9.2c-.4.5-.4 1.1 0 1.5.5.4 1.1.4 1.5 0l7.9-8.3 7.1 8.3c.2.3.5.4.8.4h.4c.1 0 .2-.1.3-.2.4-.1.6-.5.6-.9V78.2h25.1v9.6l-6.1-7.1c-.2-.3-.5-.4-.8-.4s-.6.1-.8.3l-8.7 9.2c-.4.5-.4 1.1 0 1.5.5.4 1.1.4 1.5 0l7.9-8.3 7.1 8.3c.2.3.5.4.8.4h.4c.4-.2.7-.6.7-1V77.3c0-.5-.4-1-1-1zM500.7 93.4c-.5 0-1 .4-1 1v35.5h-2.4v-15.5c0-.5-.4-1-1-1h-7.4c-.5 0-1 .4-1 1v15.5h-2.4c-.5 0-1 .5-1 1s.4 1 1 1H500.7c.5 0 1-.5 1-1V94.4c0-.5-.5-1-1-1zm-5.5 36.4h-5.3v-14.5h5.3v14.5z"/><path fill="#ccccd1" d="M496.3 109.3c.5 0 1-.5 1-1.1V97.4c0-.5-.4-1-1-1h-7.4c-.5 0-1 .4-1 1v10.9c0 .5.4 1 1 1h7.4zm-6.4-10.8h5.3v1.1h-5.3v-1.1zm0 3.1h5.3v5.6h-5.3v-5.6z"/><circle fill="#ccccd1" cx="492.6" cy="117.8" r="1.5"/><path fill="#ccccd1" d="M484.5 74.6c.6 0 1.1-.5 1.1-1.1s-.5-1.1-1.1-1.1-1.1.5-1.1 1.1.5 1.1 1.1 1.1zM481 74.6c.6 0 1.1-.5 1.1-1.1s-.5-1.1-1.1-1.1-1.1.5-1.1 1.1.5 1.1 1.1 1.1zM482.8 100.4c.4-.4.4-1.2 0-1.6s-1.2-.4-1.6 0l-6.8 6.8v-3.7l6.6-6.6c.4-.4.4-1.2 0-1.6s-1.2-.4-1.6 0l-5 5v-4.3c0-.5-.5-1-1-1s-1 .4-1 1v35.5H470v-15.5c0-.5-.4-1-1-1h-7.4c-.5 0-1 .4-1 1v15.5h-2.4c-.5 0-1 .5-1 1s.4 1 1 1H473.4c.6 0 1-.5 1-1v-1.5l8.4-8.4c.4-.4.4-1.2 0-1.6s-1.2-.4-1.6 0l-6.8 6.8v-3.7l8.4-8.4c.4-.4.4-1.2 0-1.6s-1.2-.4-1.6 0l-6.8 6.8v-3.7l8.4-8.4c.4-.4.4-1.2 0-1.6s-1.2-.4-1.6 0l-6.8 6.8v-3.6l8.4-8.4zM468 129.8h-5.3v-14.5h5.3v14.5zM481.2 126.2l-3.7 3.7c-.4.5-.4 1.2 0 1.6.4.4 1.2.4 1.6 0l3.7-3.7c.4-.4.4-1.2 0-1.6-.4-.4-1.2-.4-1.6 0zM222.7 60c0-.5-.4-1-1-1h-15.4l-15.8-17.9c-.1-.2-.4-.3-.7-.3s-.6.1-.8.3l-16.6 16.7c-.4.4-.4 1.1 0 1.5s1.1.4 1.5 0l15.8-16L203.6 59h-10.8v-3.2c0-1.7-1.4-3.1-3.1-3.1s-3.1 1.4-3.1 3.1V59h-5c-.5 0-1 .5-1 1s.4 1 1 1h6c.5 0 1-.4 1-1v-4.2c0-.6.5-1.1 1.1-1.1s1.1.5 1.1 1.1V60c0 .5.4 1 1 1 .1 0 .2 0 .3-.1.1 0 .2.1.2.1h12.5v13.2h-4v-3.9c0-1.7-1.4-3.1-3.1-3.1s-3.1 1.4-3.1 3.1v3.9H190c-.5 0-1 .5-1 1s.4 1 1 1h5.6c.5 0 1-.4 1-1v-4.9c0-.6.5-1.1 1.1-1.1s1.1.5 1.1 1.1v4.9c0 .5.4 1 1 1h5v14.9h-4v-4c0-1.7-1.4-3.1-3.1-3.1s-3.1 1.4-3.1 3.1v4H190c-.5 0-1 .5-1 1s.4 1 1 1h5.5c.3 0 .6-.1.7-.4.2-.2.4-.4.4-.7v-4.8c0-.6.5-1.1 1.1-1.1s1.1.5 1.1 1.1v4.9c0 .5.4 1 1 1h5v14.8h-4V104c0-1.7-1.4-3.1-3.1-3.1s-3.1 1.4-3.1 3.1v3.9H190c-.5 0-1 .5-1 1s.4 1 1 1h5.6c.5 0 1-.4 1-1V104c0-.6.5-1.1 1.1-1.1s1.1.5 1.1 1.1v4.9c0 .5.4 1 1 1h5V124h-4v-4c0-1.7-1.4-3.1-3.1-3.1s-3.1 1.4-3.1 3.1v4H190c-.5 0-1 .5-1 1s.4 1 1 1h5.5c.3 0 .6-.1.7-.4.2-.2.4-.4.4-.7V120c0-.6.5-1.1 1.1-1.1s1.1.5 1.1 1.1v5c0 .5.4 1 1 1h5v3.8h-20.1V120c0-1.7-1.4-3.1-3.1-3.1s-3.1 1.4-3.1 3.1v9.8H173.1c-.5 0-1 .5-1 1s.4 1 1 1h48.7c.6 0 1.1-.4.9-.9V60zm-40 69.8h-2.2V120c0-.6.5-1.1 1.1-1.1s1.1.5 1.1 1.1v9.8zm38 0h-13.9V126H211.7c.5 0 1-.4 1-1v-5c0-.6.5-1.1 1.1-1.1s1.1.5 1.1 1.1v5c0 .5.4 1 1 1s1.1-.5 1-1v-5c0-1.7-1.4-3.1-3.1-3.1s-3.1 1.4-3.1 3.1v4h-3.9v-14.1H211.7c.5 0 1-.4 1-1v-5c0-.6.5-1.1 1.1-1.1s1.1.5 1.1 1.1v5c0 .5.4 1 1 1s1.1-.5 1-1v-5c0-1.7-1.4-3.1-3.1-3.1s-3.1 1.4-3.1 3.1v4h-3.9V93.1H211.7c.5 0 1-.4 1-1v-5c0-.6.5-1.1 1.1-1.1s1.1.5 1.1 1.1v5c0 .5.4 1 1 1s1.1-.5 1-1v-5c0-1.7-1.4-3.1-3.1-3.1s-3.1 1.4-3.1 3.1v4h-3.9V76.2H211.7c.5 0 1-.4 1-1v-5c0-.6.5-1.1 1.1-1.1s1.1.5 1.1 1.1v5c0 .5.4 1 1 1s1.1-.5 1-1v-5c0-1.7-1.4-3.1-3.1-3.1s-3.1 1.4-3.1 3.1v4h-3.9V61h13.9v68.8z"/><path fill="#ccccd1" d="M183.7 76.3c.6 0 1.1-.5 1-1v-5c0-1.7-1.4-3.1-3.1-3.1s-3.1 1.4-3.1 3.1v5c0 .5.5 1 1 1s1-.4 1-1v-5c0-.6.5-1.1 1.1-1.1s1.1.5 1.1 1.1v5c0 .5.4 1 1 1zM178.5 92.1c0 .5.5 1 1 1s1-.4 1-1v-5c0-.6.5-1.1 1.1-1.1s1.1.5 1.1 1.1v5c0 .5.4 1 1 1s1.1-.4 1-1v-5c0-1.7-1.4-3.1-3.1-3.1s-3.1 1.4-3.1 3.1v5zM178.5 109c0 .5.5 1 1 1s1-.4 1-1v-5c0-.6.5-1.1 1.1-1.1s1.1.5 1.1 1.1v5c0 .5.4 1 1 1s1.1-.5 1-1v-5c0-1.7-1.4-3.1-3.1-3.1s-3.1 1.4-3.1 3.1v5zM117 73.4c-.4-.4-1.2-.4-1.6 0l-9.8 9.8c-.4.5-.4 1.2 0 1.6s1.2.4 1.6 0L117 75c.4-.4.4-1.2 0-1.6zM115.4 79.6l-3.6 3.6c-.4.5-.4 1.2 0 1.6s1.2.4 1.6 0l3.6-3.6c.4-.4.4-1.2 0-1.6s-1.2-.4-1.6 0zM117.4 60.7c-.4-.4-1.2-.4-1.6 0l-16 16c-.4.4-.4 1.2 0 1.6s1.2.4 1.6 0l16-16c.5-.4.5-1.1 0-1.6zM117.4 66.9c-.4-.4-1.2-.4-1.6 0l-16 16c-.4.4-.4 1.2 0 1.6s1.2.4 1.6 0l16-16c.5-.4.5-1.2 0-1.6zM101.8 51.9l9.8-9.8c.4-.4.4-1.2 0-1.6-.4-.4-1.2-.4-1.6 0l-9.8 9.8c-.4.4-.4 1.2 0 1.6.4.4 1.2.4 1.6 0zM101.8 45.7l3.6-3.6c.4-.4.4-1.2 0-1.6-.4-.4-1.2-.4-1.6 0l-3.6 3.6c-.4.4-.4 1.2 0 1.6.4.4 1.2.4 1.6 0zM101.4 71.5l16-16c.4-.4.4-1.2 0-1.6-.4-.4-1.2-.4-1.6 0l-16 16c-.5.4-.5 1.2 0 1.6.4.4 1.2.4 1.6 0zM101.4 65.3l16-16c.4-.4.4-1.2 0-1.6-.4-.4-1.2-.4-1.6 0l-16 16c-.5.5-.5 1.2 0 1.6.4.4 1.2.4 1.6 0zM101.4 58.4l16-16c.4-.4.4-1.2 0-1.6-.4-.4-1.2-.4-1.6 0l-16 16c-.5.5-.5 1.2 0 1.6.4.4 1.2.4 1.6 0zM89.8 81.9c.6 0 1.1-.5 1.1-1.1s-.5-1.1-1.1-1.1-1.1.5-1.1 1.1c0 .6.5 1.1 1.1 1.1zM148.9 112h5.4c.5 0 1-.5 1-1v-7.9c0-.5-.4-1-1-1h-5.4c-.5 0-1 .4-1 1v7.9c0 .5.4 1 1 1zm1-7.9h3.3v1.7h-3.3v-1.7zm0 3.7h3.3v2.1h-3.3v-2.1zM148.9 125.5h5.4c.5 0 1-.4 1-1v-7.9c0-.5-.4-1-1-1h-5.4c-.5 0-1 .4-1 1v7.9c0 .5.4 1 1 1zm1-7.8h3.3v1.6h-3.3v-1.6zm0 3.6h3.3v2.2h-3.3v-2.2zM102.8 112h5.4c.6 0 1.1-.5 1-1v-7.9c0-.5-.4-1-1-1h-5.4c-.5 0-1 .4-1 1v7.9c0 .5.4 1 1 1zm1.1-7.9h3.3v1.7h-3.3v-1.7zm0 3.7h3.3v2.1h-3.3v-2.1zM102.8 125.5h5.4c.6 0 1.1-.4 1-1v-7.9c0-.5-.4-1-1-1h-5.4c-.5 0-1 .4-1 1v7.9c0 .5.4 1 1 1zm1.1-7.8h3.3v1.6h-3.3v-1.6zm0 3.6h3.3v2.2h-3.3v-2.2zM92.3 106.1c.6 0 1-.5 1-1v-1.9c0-.5-.5-1-1-1s-1 .4-1 1v1.9c0 .5.4 1 1 1zM88.3 106.1c.6 0 1-.5 1-1v-1.9c0-.5-.5-1-1-1s-1 .4-1 1v1.9c0 .5.4 1 1 1zM27.6 36.4v-5c0-.5-.5-1-1-1s-1 .4-1 1v5c0 .5.4 1 1 1s1-.5 1-1zM25.6 50.1c0 .5.4 1 1 1s1-.4 1-1v-5c0-.5-.5-1-1-1s-1 .4-1 1v5zM25.6 63.9c0 .5.4 1 1 1s1-.5 1-1v-5c0-.5-.5-1-1-1s-1 .4-1 1v5zM25.6 77.6c0 .5.4 1 1 1s1-.4 1-1v-5c0-.5-.5-1-1-1s-1 .4-1 1v5zM16.2 120.6l-9.8 9.8c-.5.4-.5 1.1 0 1.6.4.4 1.2.4 1.6 0l9.8-9.8c.4-.4.4-1.2 0-1.6-.4-.4-1.2-.4-1.6 0zM16.2 126.8l-3.6 3.6c-.5.4-.5 1.1 0 1.6.4.4 1.2.4 1.6 0l3.6-3.6c.4-.4.4-1.2 0-1.6-.4-.4-1.2-.4-1.6 0zM16.6 74.9l-16 16c-.4.4-.4 1.2 0 1.6s1.2.4 1.6 0l16-16c.4-.5.4-1.2 0-1.6-.4-.4-1.2-.4-1.6 0zM16.6 81.1l-16 16c-.4.4-.4 1.2 0 1.6s1.2.4 1.6 0l16-16c.4-.5.4-1.2 0-1.6-.4-.4-1.2-.4-1.6 0zM16.6 87.9l-16 16c-.4.4-.4 1.2 0 1.6s1.2.4 1.6 0l16-16c.4-.4.4-1.1 0-1.6-.4-.4-1.2-.4-1.6 0zM16.6 94.1l-16 16c-.4.4-.4 1.2 0 1.6s1.2.4 1.6 0l16-16c.4-.4.4-1.2 0-1.6-.4-.4-1.2-.4-1.6 0zM16.6 101l-16 16c-.4.4-.4 1.2 0 1.6s1.2.4 1.6 0l16-16c.4-.5.4-1.2 0-1.6-.4-.4-1.2-.4-1.6 0zM16.6 107.9l-16 16c-.4.4-.4 1.2 0 1.6s1.2.4 1.6 0l16-16c.4-.5.4-1.2 0-1.6-.4-.4-1.2-.4-1.6 0zM16.6 114l-16 16c-.4.4-.4 1.2 0 1.6.4.4 1.2.4 1.6 0l16-16c.4-.4.4-1.1 0-1.6-.4-.4-1.2-.4-1.6 0zM2.5 34l9.8-9.8c.5-.4.5-1.1 0-1.6-.4-.4-1.2-.4-1.6 0L.9 32.4c-.4.4-.4 1.2 0 1.6.4.4 1.2.4 1.6 0zM2.5 27.8l3.6-3.6c.5-.4.5-1.1 0-1.6-.4-.4-1.2-.4-1.6 0L.9 26.2c-.4.4-.4 1.2 0 1.6.4.4 1.2.4 1.6 0zM2.1 86.6l16-16c.4-.4.4-1.2 0-1.6s-1.2-.4-1.6 0L.5 85c-.4.5-.4 1.2 0 1.6s1.2.4 1.6 0zM2.1 80.4l16-16c.4-.4.4-1.2 0-1.6-.4-.4-1.2-.4-1.6 0l-16 16c-.4.5-.4 1.2 0 1.6s1.2.4 1.6 0zM2.1 74l16-16c.4-.4.4-1.2 0-1.6-.4-.4-1.2-.4-1.6 0l-16 16c-.4.5-.4 1.2 0 1.6s1.2.4 1.6 0zM2.1 67.4l16-16c.4-.4.4-1.2 0-1.6-.4-.4-1.2-.4-1.6 0l-16 16c-.4.4-.4 1.1 0 1.6.4.4 1.2.4 1.6 0zM2.1 60.5l16-16c.4-.4.4-1.2 0-1.6-.4-.4-1.2-.4-1.6 0l-16 16c-.4.4-.4 1.2 0 1.6.5.5 1.2.5 1.6 0zM2.1 53.6l16-16c.4-.4.4-1.2 0-1.6-.4-.4-1.2-.4-1.6 0L.5 52c-.4.5-.4 1.2 0 1.6.4.4 1.2.4 1.6 0zM2.1 47.4l16-16c.4-.4.4-1.2 0-1.6s-1.2-.4-1.6 0l-16 16c-.4.5-.4 1.2 0 1.6s1.2.4 1.6 0zM2.1 40.6l16-16c.4-.4.4-1.2 0-1.6s-1.2-.4-1.6 0L.5 39c-.4.4-.4 1.1 0 1.6.5.4 1.2.4 1.6 0zM78 73.4c-.4-.4-1.2-.4-1.6 0l-9.8 9.8c-.4.5-.4 1.2 0 1.6s1.2.4 1.6 0L78 75c.4-.4.4-1.2 0-1.6zM76.4 79.6l-3.6 3.6c-.4.5-.4 1.2 0 1.6s1.2.4 1.6 0l3.6-3.6c.4-.4.4-1.2 0-1.6s-1.2-.4-1.6 0zM78.4 47c-.4-.4-1.2-.4-1.6 0l-16 16c-.4.4-.4 1.2 0 1.6s1.2.4 1.6 0l16-16c.5-.5.5-1.2 0-1.6zM78.4 53.9c-.4-.4-1.2-.4-1.6 0l-16 16c-.4.4-.4 1.2 0 1.6s1.2.4 1.6 0l16-16c.5-.5.5-1.2 0-1.6zM78.4 60.7c-.4-.4-1.2-.4-1.6 0l-16 16c-.4.4-.4 1.2 0 1.6s1.2.4 1.6 0l16-16c.5-.4.5-1.1 0-1.6zM78.4 66.9c-.4-.4-1.2-.4-1.6 0l-16 16c-.4.4-.4 1.2 0 1.6s1.2.4 1.6 0l16-16c.5-.4.5-1.2 0-1.6zM62.8 37.9l9.8-9.8c.4-.4.4-1.2 0-1.6s-1.2-.4-1.6 0l-9.8 9.8c-.4.4-.4 1.2 0 1.6.4.4 1.2.4 1.6 0zM62.8 31.7l3.6-3.6c.4-.4.4-1.2 0-1.6s-1.2-.4-1.6 0l-3.6 3.6c-.4.4-.4 1.2 0 1.6.4.4 1.2.4 1.6 0zM62.4 57.5l16-16c.4-.4.4-1.2 0-1.6-.4-.4-1.2-.4-1.6 0l-16 16c-.5.4-.5 1.2 0 1.6.4.4 1.2.4 1.6 0zM62.4 51.3l16-16c.4-.4.4-1.2 0-1.6-.4-.4-1.2-.4-1.6 0l-16 16c-.5.5-.5 1.2 0 1.6.4.4 1.2.4 1.6 0zM62.4 44.4l16-16c.4-.4.4-1.2 0-1.6s-1.2-.4-1.6 0l-16 16c-.5.5-.5 1.2 0 1.6.4.4 1.2.4 1.6 0zM72.3 112h5.4c.6 0 1-.5 1-1v-7.9c0-.5-.4-1-1-1h-5.4c-.5 0-1 .4-1 1v7.9c0 .5.4 1 1 1zm1.1-7.9h3.3v1.7h-3.3v-1.7zm0 3.7h3.3v2.1h-3.3v-2.1zM72.3 125.5h5.4c.6 0 1-.4 1-1v-7.9c0-.5-.4-1-1-1h-5.4c-.5 0-1 .4-1 1v7.9c0 .5.4 1 1 1zm1.1-7.8h3.3v1.6h-3.3v-1.6zm0 3.6h3.3v2.2h-3.3v-2.2zM26.3 112h5.4c.5 0 1-.5 1-1v-7.9c0-.5-.4-1-1-1h-5.4c-.5 0-1 .4-1 1v7.9c0 .5.4 1 1 1zm1-7.9h3.3v1.7h-3.3v-1.7zm0 3.7h3.3v2.1h-3.3v-2.1zM26.3 125.5h5.4c.5 0 1-.4 1-1v-7.9c0-.5-.4-1-1-1h-5.4c-.5 0-1 .4-1 1v7.9c0 .5.4 1 1 1zm1-7.8h3.3v1.6h-3.3v-1.6zm0 3.6h3.3v2.2h-3.3v-2.2zM56.8 112h5.4c.6 0 1-.5 1-1v-7.9c0-.5-.4-1-1-1h-5.4c-.5 0-1 .4-1 1v7.9c0 .5.4 1 1 1zm1.1-7.9h3.3v1.7h-3.3v-1.7zm0 3.7h3.3v2.1h-3.3v-2.1zM56.8 125.5h5.4c.6 0 1-.4 1-1v-7.9c0-.5-.4-1-1-1h-5.4c-.5 0-1 .4-1 1v7.9c0 .5.4 1 1 1zm1.1-7.8h3.3v1.6h-3.3v-1.6zm0 3.6h3.3v2.2h-3.3v-2.2zM42.2 106.1c.6 0 1.1-.5 1-1v-1.9c0-.5-.5-1-1-1s-1 .4-1 1v1.9c0 .5.4 1 1 1zM46.2 106.1c.6 0 1.1-.5 1-1v-1.9c0-.5-.5-1-1-1s-1 .4-1 1v1.9c0 .5.4 1 1 1zM44.7 81.9c.6 0 1.1-.5 1.1-1.1s-.5-1.1-1.1-1.1-1.1.5-1.1 1.1c0 .6.5 1.1 1.1 1.1zM118.3 112h5.4c.6 0 1.1-.5 1-1v-7.9c0-.5-.4-1-1-1h-5.4c-.5 0-1 .4-1 1v7.9c0 .5.4 1 1 1zm1.1-7.9h3.3v1.7h-3.3v-1.7zm0 3.7h3.3v2.1h-3.3v-2.1zM118.3 125.5h5.4c.6 0 1.1-.4 1-1v-7.9c0-.5-.4-1-1-1h-5.4c-.5 0-1 .4-1 1v7.9c0 .5.4 1 1 1zm1.1-7.8h3.3v1.6h-3.3v-1.6zm0 3.6h3.3v2.2h-3.3v-2.2zM138.3 106.1c.6 0 1.1-.5 1-1v-1.9c0-.5-.5-1-1-1s-1 .4-1 1v1.9c0 .5.4 1 1 1zM134.3 106.1c.6 0 1.1-.5 1-1v-1.9c0-.5-.5-1-1-1s-1 .4-1 1v1.9c0 .5.4 1 1 1zM134.8 80.8c0 .6.5 1.1 1.1 1.1s1.1-.5 1.1-1.1-.5-1.1-1.1-1.1c-.6 0-1.1.5-1.1 1.1zM168.6 123.6l-6.4 6.5c-.4.4-.4 1.1 0 1.5.2.2.4.3.7.3.2 0 .5-.1.8-.3l6.4-6.5c.4-.4.4-1.1 0-1.5-.4-.4-1.1-.4-1.5 0zM168.6 130l-.1.1c-.4.4-.4 1.1 0 1.5.2.2.4.3.7.3.2 0 .5-.2.8-.3l.1-.1c.4-.4.4-1.1 0-1.5-.4-.4-1.1-.4-1.5 0zM168.6 61.1l-12.5 12.7c-.4.4-.4 1.1 0 1.5.2.2.4.3.7.3.2 0 .5-.1.8-.3l12.5-12.7c.4-.4.4-1.1 0-1.5-.4-.4-1.1-.4-1.5 0zM156.3 62.6c.1.1.3.1.5.1.3 0 .7-.2.9-.5l.1-.1c.3-.5.1-1.1-.4-1.4s-1.1-.1-1.4.4l-.1.1c-.3.5-.1 1.1.4 1.4zM156.7 69.1c.3 0 .5-.1.8-.3l6.4-6.5c.4-.4.4-1.1 0-1.5s-1.1-.4-1.5 0l-6.4 6.5c-.4.4-.4 1.1 0 1.5.2.2.4.3.7.3z"/><path fill="#ccccd1" d="M170.1 79.8c-.4-.4-1.1-.4-1.5 0l-12.5 12.7s0 .1-.1.1l-6-5.1c-.2-.1-.5-.2-.7-.2h-10.9v-3.6c0-.5-.4-1-1-1h-3c-.5 0-1 .4-1 1v3.6h-41v-3.6c0-.5-.4-1-1-1h-3c-.5 0-1 .4-1 1v3.6H47.2v-3.6c0-.5-.4-1-1-1h-3c-.5 0-1 .4-1 1v3.6h-6V23.4c0-.5-.4-1-1-1H23v-5.9c0-.5-.5-1-1-1s-1 .4-1 1v6.9c0 .5.4 1 1 1h12.1v62.9h-2.8c-.3 0-.5 0-.7.2l-3 2.5v-3.6c0-.5-.5-1-1-1s-1 .4-1 1v5c0 .1 0 .2.1.3L20.6 96c-.3.2-.5.7-.3 1.1v33.7c0 .5.4 1 1 1h135.1c.1.1.3.1.4.1.1 0 .3 0 .4-.1h2.1c.6 0 1.1-.4 1-1v-1.9l9.8-10c.4-.4.4-1.1 0-1.5s-1.1-.4-1.5 0l-8.3 8.4v-3.3l9.8-10c.4-.4.4-1.1 0-1.5s-1.1-.4-1.5 0l-8.3 8.4v-3.2l9.8-10c.4-.4.4-1.1 0-1.5s-1.1-.4-1.5 0l-8.3 8.4v-3.3l9.8-10c.4-.4.4-1.1 0-1.5s-1.1-.4-1.5 0l-8.3 8.4v-3.2l9.8-10c.4-.4.4-1.1 0-1.5s-1.1-.4-1.5 0l-8.3 8.4v-3.3l9.8-10c.4-.4.4-1.1 0-1.5s-1.1-.4-1.5 0l-9.2 9.4-1.8-1.5 12.5-12.6c.4 0 .4-.7 0-1.1zM44.2 84.7h.9V87h-.9v-2.3zm-12.6 4.6h34.6v6.5H24l7.6-6.5zm9.6 40.5h-3.3v-12.1h3.3v12.1zm-3.1-14.2c.3-.5.8-.9 1.4-.9s1.2.4 1.4.9h-2.8zm12.6 14.2h-3.3v-12.1h3.3v12.1zm-3-14.2c.3-.5.8-.9 1.4-.9.6 0 1.2.4 1.4.9h-2.8zm18.6 14.2H52.8v-13.2-.1c0-.1.1-.1.1-.2 0-2-1.7-3.7-3.7-3.7-1.9 0-3.6 1.6-3.7 3.5-.1.1-.1.3-.1.5v13.2h-2.1v-13.2V116.3c0-2-1.7-3.7-3.7-3.7s-3.7 1.7-3.7 3.7v13.5H22.3v-32h44v32zm23.1-45.1h.9V87h-.9v-2.3zm-2.2 45.1h-3.3v-12.1h3.3v12.1zm-3-14.2c.3-.5.8-.9 1.4-.9s1.2.4 1.4.9h-2.8zm12.5 14.2h-3.3v-12.1h3.3v12.1zm-3-14.2c.3-.5.8-.9 1.4-.9s1.2.4 1.4.9h-2.8zm18.6 14.2H98.8v-13.2c0-.1.1-.2.1-.3 0-2-1.7-3.7-3.7-3.7-1.9 0-3.6 1.6-3.7 3.5-.1.1-.1.3-.1.5v13.2h-2.1v-13.2-.1c0-.1.1-.2.1-.2 0-2-1.7-3.7-3.7-3.7-1.9 0-3.6 1.6-3.7 3.5-.1.1-.1.3-.1.5v13.2H68.3v-32h44v32zm0-34h-44v-6.5h44v6.5zm23.1-11.1h.9V87h-.9v-2.3zm13.5 4.6l7.6 6.5h-42.1l-.1-6.5h34.6zm-15.6 40.5H130v-12.1h3.3v12.1zm-3.1-14.2c.3-.5.8-.9 1.4-.9.6 0 1.2.4 1.4.9h-2.8zm12.6 14.2h-3.3v-12.1h3.3v12.1zm-3-14.2c.3-.5.8-.9 1.4-.9s1.2.4 1.4.9h-2.8zm18.5-17.8v32h-13.4v-13.2-.1c0-.1.1-.1.1-.2 0-2-1.7-3.7-3.7-3.7-1.9 0-3.6 1.6-3.7 3.5-.1.1-.1.3-.1.5v13.2h-2.1v-13.2V116.3c0-2-1.7-3.7-3.7-3.7s-3.7 1.7-3.7 3.7v13.5h-13.7v-32h44z"/><path fill="#ccccd1" d="M168.6 67.3L156.1 80c-.4.4-.4 1.1 0 1.5.2.2.4.3.7.3.2 0 .5-.1.8-.3l12.5-12.7c.4-.4.4-1.1 0-1.5-.4-.4-1.1-.4-1.5 0zM168.6 73.6l-12.5 12.7c-.4.4-.4 1.1 0 1.5.2.2.4.3.7.3.2 0 .5-.1.8-.3l12.5-12.7c.4-.4.4-1.1 0-1.5-.4-.4-1.1-.4-1.5 0z"/></svg>
