<svg id="Layer_1" data-name="Layer 1" xmlns="http://www.w3.org/2000/svg" viewBox="0 0 635.02 445"><defs><style>.cls-1{fill:#fff;}.cls-2{fill:#41b4e8;}</style></defs><title>tempest-logo</title><path class="cls-1" d="M134.08,344.09V218.8H102.76V197.92h83.52V218.8H155V344.09Z" transform="translate(-102.76 -62)"/><path class="cls-1" d="M207.23,344.09V197.92h62.64V218.8H228.12v41.76h31.32v20.88H228.12v41.76h41.76v20.88Z" transform="translate(-102.76 -62)"/><path class="cls-1" d="M326.23,312.77,314.32,271v73.08H293.44V197.92h20.88L335.2,271l20.88-73.08H377V344.09H356.09V271l-11.91,41.76Z" transform="translate(-102.76 -62)"/><path class="cls-1" d="M401.67,344.09V197.92h41.76a19.73,19.73,0,0,1,14.68,6.2,20.08,20.08,0,0,1,6.2,14.68v41.76a19.91,19.91,0,0,1-6.2,14.85,20.34,20.34,0,0,1-14.68,6H422.55v62.64Zm41.76-83.53V218.8H422.55v41.76Z" transform="translate(-102.76 -62)"/><path class="cls-1" d="M486.74,344.09V197.92h62.64V218.8H507.62v41.76h31.32v20.88H507.62v41.76h41.76v20.88Z" transform="translate(-102.76 -62)"/><path class="cls-1" d="M634.28,323.21a20.26,20.26,0,0,1-6.2,14.84,20,20,0,0,1-14.68,6H592.52a20.52,20.52,0,0,1-14.84-6,20.17,20.17,0,0,1-6-14.84V302.33h20.88v20.88H613.4V281.45H592.52a20.17,20.17,0,0,1-14.84-6,20.52,20.52,0,0,1-6-14.85V218.8a20,20,0,0,1,6-14.68,20.25,20.25,0,0,1,14.84-6.2H613.4a19.73,19.73,0,0,1,14.68,6.2,20.08,20.08,0,0,1,6.2,14.68v20.88H613.4V218.8H592.52v41.76H613.4a19.73,19.73,0,0,1,14.68,6.2,20.08,20.08,0,0,1,6.2,14.68Z" transform="translate(-102.76 -62)"/><path class="cls-1" d="M685.58,344.09V218.8H654.26V197.92h83.53V218.8H706.46V344.09Z" transform="translate(-102.76 -62)"/><polygon class="cls-2" points="460 54.65 446.55 0 213.67 0 200.22 54.65 248.23 32.79 311.08 35.37 272.52 83.23 368.4 34.58 411.99 32.79 460 54.65"/><polygon class="cls-2" points="287.61 128.23 342.44 100.86 361.18 65.68 336.78 74.9 287.61 128.23"/><polygon class="cls-2" points="326.33 327.3 296.78 390.41 324.23 375.71 313.72 445 350.71 332.34 322.27 359.04 326.33 327.3"/><polygon class="cls-2" points="342.86 300.22 352.96 268.71 293.84 325.71 342.86 300.22"/></svg>